<svg width="36" height="36" viewBox="0 0 36 36" fill="none" xmlns="http://www.w3.org/2000/svg">
<path d="M18 0C8.064 0 0 8.064 0 18C0 27.936 8.064 36 18 36C27.936 36 36 27.936 36 18C36 8.064 27.936 0 18 0ZM16.2 32.274C9.09 31.392 3.6 25.344 3.6 18C3.6 16.884 3.744 15.822 3.978 14.778L12.6 23.4V25.2C12.6 27.18 14.22 28.8 16.2 28.8V32.274ZM28.62 27.702C28.152 26.244 26.82 25.2 25.2 25.2H23.4V19.8C23.4 18.81 22.59 18 21.6 18H10.8V14.4H14.4C15.39 14.4 16.2 13.59 16.2 12.6V9H19.8C21.78 9 23.4 7.38 23.4 5.4V4.662C28.674 6.804 32.4 11.97 32.4 18C32.4 21.744 30.96 25.146 28.62 27.702Z" fill="black"/>
</svg>
